<svg width="173" height="130" viewBox="0 0 173 130" fill="none" xmlns="http://www.w3.org/2000/svg">
<path d="M112.24 27.08C111.845 27.08 111.515 26.9573 111.248 26.712C110.992 26.456 110.864 26.1413 110.864 25.768C110.864 25.3947 110.992 25.0853 111.248 24.84C111.515 24.584 111.845 24.456 112.24 24.456C112.635 24.456 112.96 24.584 113.216 24.84C113.483 25.0853 113.616 25.3947 113.616 25.768C113.616 26.1413 113.483 26.456 113.216 26.712C112.96 26.9573 112.635 27.08 112.24 27.08ZM113.344 28.136V37H111.104V28.136H113.344ZM120.169 28.008C121.225 28.008 122.078 28.344 122.729 29.016C123.38 29.6773 123.705 30.6053 123.705 31.8V37H121.465V32.104C121.465 31.4 121.289 30.8613 120.937 30.488C120.585 30.104 120.105 29.912 119.497 29.912C118.878 29.912 118.388 30.104 118.025 30.488C117.673 30.8613 117.497 31.4 117.497 32.104V37H115.257V28.136H117.497V29.24C117.796 28.856 118.174 28.5573 118.633 28.344C119.102 28.12 119.614 28.008 120.169 28.008ZM137.711 25.832V37H135.471V29.736L132.479 37H130.783L127.775 29.736V37H125.535V25.832H128.079L131.631 34.136L135.183 25.832H137.711ZM147.994 28.136V37H145.738V35.88C145.45 36.264 145.071 36.568 144.602 36.792C144.143 37.0053 143.642 37.112 143.098 37.112C142.405 37.112 141.791 36.968 141.258 36.68C140.725 36.3813 140.303 35.9493 139.994 35.384C139.695 34.808 139.546 34.1253 139.546 33.336V28.136H141.786V33.016C141.786 33.72 141.962 34.264 142.314 34.648C142.666 35.0213 143.146 35.208 143.754 35.208C144.373 35.208 144.858 35.0213 145.21 34.648C145.562 34.264 145.738 33.72 145.738 33.016V28.136H147.994ZM153.296 37.144C152.571 37.144 151.92 37.016 151.344 36.76C150.768 36.4933 150.309 36.136 149.968 35.688C149.637 35.24 149.456 34.744 149.424 34.2H151.68C151.723 34.5413 151.888 34.824 152.176 35.048C152.475 35.272 152.843 35.384 153.28 35.384C153.707 35.384 154.037 35.2987 154.272 35.128C154.517 34.9573 154.64 34.7387 154.64 34.472C154.64 34.184 154.491 33.9707 154.192 33.832C153.904 33.6827 153.44 33.5227 152.8 33.352C152.139 33.192 151.595 33.0267 151.168 32.856C150.752 32.6853 150.389 32.424 150.08 32.072C149.781 31.72 149.632 31.2453 149.632 30.648C149.632 30.1573 149.771 29.7093 150.048 29.304C150.336 28.8987 150.741 28.5787 151.264 28.344C151.797 28.1093 152.421 27.992 153.136 27.992C154.192 27.992 155.035 28.2587 155.664 28.792C156.293 29.3147 156.64 30.024 156.704 30.92H154.56C154.528 30.568 154.379 30.2907 154.112 30.088C153.856 29.8747 153.509 29.768 153.072 29.768C152.667 29.768 152.352 29.8427 152.128 29.992C151.915 30.1413 151.808 30.3493 151.808 30.616C151.808 30.9147 151.957 31.144 152.256 31.304C152.555 31.4533 153.019 31.608 153.648 31.768C154.288 31.928 154.816 32.0933 155.232 32.264C155.648 32.4347 156.005 32.7013 156.304 33.064C156.613 33.416 156.773 33.8853 156.784 34.472C156.784 34.984 156.64 35.4427 156.352 35.848C156.075 36.2533 155.669 36.5733 155.136 36.808C154.613 37.032 154 37.144 153.296 37.144ZM159.459 27.08C159.064 27.08 158.733 26.9573 158.467 26.712C158.211 26.456 158.083 26.1413 158.083 25.768C158.083 25.3947 158.211 25.0853 158.467 24.84C158.733 24.584 159.064 24.456 159.459 24.456C159.853 24.456 160.179 24.584 160.435 24.84C160.701 25.0853 160.835 25.3947 160.835 25.768C160.835 26.1413 160.701 26.456 160.435 26.712C160.179 26.9573 159.853 27.08 159.459 27.08ZM160.563 28.136V37H158.323V28.136H160.563ZM161.9 32.568C161.9 31.6507 162.087 30.8507 162.46 30.168C162.833 29.4747 163.351 28.9413 164.012 28.568C164.673 28.184 165.431 27.992 166.284 27.992C167.383 27.992 168.289 28.2693 169.004 28.824C169.729 29.368 170.215 30.136 170.46 31.128H168.044C167.916 30.744 167.697 30.4453 167.388 30.232C167.089 30.008 166.716 29.896 166.268 29.896C165.628 29.896 165.121 30.1307 164.748 30.6C164.375 31.0587 164.188 31.7147 164.188 32.568C164.188 33.4107 164.375 34.0667 164.748 34.536C165.121 34.9947 165.628 35.224 166.268 35.224C167.175 35.224 167.767 34.8187 168.044 34.008H170.46C170.215 34.968 169.729 35.7307 169.004 36.296C168.279 36.8613 167.372 37.144 166.284 37.144C165.431 37.144 164.673 36.9573 164.012 36.584C163.351 36.2 162.833 35.6667 162.46 34.984C162.087 34.2907 161.9 33.4853 161.9 32.568Z" fill="#121B25"/>
<path d="M116.846 56.83H112.59L111.806 59H110.462L113.99 49.298H115.46L118.974 59H117.63L116.846 56.83ZM116.482 55.794L114.718 50.866L112.954 55.794H116.482ZM121.486 52.742C121.738 52.3033 122.111 51.9393 122.606 51.65C123.11 51.3513 123.693 51.202 124.356 51.202C125.037 51.202 125.653 51.3653 126.204 51.692C126.764 52.0187 127.202 52.4807 127.52 53.078C127.837 53.666 127.996 54.352 127.996 55.136C127.996 55.9107 127.837 56.6013 127.52 57.208C127.202 57.8147 126.764 58.286 126.204 58.622C125.653 58.958 125.037 59.126 124.356 59.126C123.702 59.126 123.124 58.9813 122.62 58.692C122.125 58.3933 121.747 58.0247 121.486 57.586V62.64H120.212V51.328H121.486V52.742ZM126.694 55.136C126.694 54.5573 126.577 54.0533 126.344 53.624C126.11 53.1947 125.793 52.868 125.392 52.644C125 52.42 124.566 52.308 124.09 52.308C123.623 52.308 123.189 52.4247 122.788 52.658C122.396 52.882 122.078 53.2133 121.836 53.652C121.602 54.0813 121.486 54.5807 121.486 55.15C121.486 55.7287 121.602 56.2373 121.836 56.676C122.078 57.1053 122.396 57.4367 122.788 57.67C123.189 57.894 123.623 58.006 124.09 58.006C124.566 58.006 125 57.894 125.392 57.67C125.793 57.4367 126.11 57.1053 126.344 56.676C126.577 56.2373 126.694 55.724 126.694 55.136ZM130.647 52.742C130.899 52.3033 131.272 51.9393 131.767 51.65C132.271 51.3513 132.854 51.202 133.517 51.202C134.198 51.202 134.814 51.3653 135.365 51.692C135.925 52.0187 136.363 52.4807 136.681 53.078C136.998 53.666 137.157 54.352 137.157 55.136C137.157 55.9107 136.998 56.6013 136.681 57.208C136.363 57.8147 135.925 58.286 135.365 58.622C134.814 58.958 134.198 59.126 133.517 59.126C132.863 59.126 132.285 58.9813 131.781 58.692C131.286 58.3933 130.908 58.0247 130.647 57.586V62.64H129.373V51.328H130.647V52.742ZM135.855 55.136C135.855 54.5573 135.738 54.0533 135.505 53.624C135.271 53.1947 134.954 52.868 134.553 52.644C134.161 52.42 133.727 52.308 133.251 52.308C132.784 52.308 132.35 52.4247 131.949 52.658C131.557 52.882 131.239 53.2133 130.997 53.652C130.763 54.0813 130.647 54.5807 130.647 55.15C130.647 55.7287 130.763 56.2373 130.997 56.676C131.239 57.1053 131.557 57.4367 131.949 57.67C132.35 57.894 132.784 58.006 133.251 58.006C133.727 58.006 134.161 57.894 134.553 57.67C134.954 57.4367 135.271 57.1053 135.505 56.676C135.738 56.2373 135.855 55.724 135.855 55.136ZM143.212 49.242V55.416C143.212 56.284 143.422 56.928 143.842 57.348C144.271 57.768 144.864 57.978 145.62 57.978C146.367 57.978 146.95 57.768 147.37 57.348C147.799 56.928 148.014 56.284 148.014 55.416V49.242H149.288V55.402C149.288 56.214 149.125 56.9 148.798 57.46C148.471 58.0107 148.028 58.4213 147.468 58.692C146.917 58.9627 146.297 59.098 145.606 59.098C144.915 59.098 144.29 58.9627 143.73 58.692C143.179 58.4213 142.741 58.0107 142.414 57.46C142.097 56.9 141.938 56.214 141.938 55.402V49.242H143.212ZM152.387 49.242V59H151.113V49.242H152.387ZM162.983 59L158.965 54.548V59H157.691V49.242H158.965V53.764L162.997 49.242H164.607L160.183 54.128L164.649 59H162.983ZM166.43 50.082C166.187 50.082 165.982 49.998 165.814 49.83C165.646 49.662 165.562 49.4567 165.562 49.214C165.562 48.9713 165.646 48.766 165.814 48.598C165.982 48.43 166.187 48.346 166.43 48.346C166.663 48.346 166.859 48.43 167.018 48.598C167.186 48.766 167.27 48.9713 167.27 49.214C167.27 49.4567 167.186 49.662 167.018 49.83C166.859 49.998 166.663 50.082 166.43 50.082ZM167.046 51.328V59H165.772V51.328H167.046ZM170.471 52.378V56.9C170.471 57.2733 170.55 57.5393 170.709 57.698C170.868 57.8473 171.143 57.922 171.535 57.922H172.473V59H171.325C170.616 59 170.084 58.8367 169.729 58.51C169.374 58.1833 169.197 57.6467 169.197 56.9V52.378H168.203V51.328H169.197V49.396H170.471V51.328H172.473V52.378H170.471Z" fill="#596675"/>
<g filter="url(#filter0_d_976_2)">
<g filter="url(#filter1_d_976_2)">
<rect x="40" y="20" width="50" height="50" rx="5" fill="url(#paint0_linear_976_2)"/>
<rect x="40" y="20" width="50" height="50" rx="5" stroke="#979797"/>
</g>
<path fill-rule="evenodd" clip-rule="evenodd" d="M65.0682 35C59.658 35 55.2722 39.4792 55.2722 45C55.2722 50.525 59.658 55 65.0682 55C70.4784 55 74.8641 50.525 74.8641 45C74.8641 39.4792 70.4784 35 65.0682 35ZM65.0682 36.6667C69.5694 36.6667 73.2314 40.4042 73.2314 45C73.2314 49.5958 69.5694 53.3333 65.0682 53.3333C60.5669 53.3333 56.9049 49.5958 56.9049 45C56.9049 40.4042 60.5669 36.6667 65.0682 36.6667Z" fill="white"/>
<path fill-rule="evenodd" clip-rule="evenodd" d="M59.3257 44.1583C59.2771 44.1583 59.2269 44.1542 59.1776 44.1417C58.8494 44.0583 58.6494 43.7167 58.7314 43.3833C59.3159 40.9875 61.1367 39.1292 63.4837 38.5333C63.8127 38.4458 64.1437 38.65 64.2257 38.9875C64.3073 39.3208 64.1073 39.6625 63.7792 39.7458C61.8731 40.2292 60.3943 41.7375 59.9196 43.6833C59.8502 43.9708 59.6004 44.1583 59.3257 44.1583Z" fill="white"/>
<path fill-rule="evenodd" clip-rule="evenodd" d="M65.0682 43.8542C64.449 43.8542 63.9457 44.3667 63.9457 45C63.9457 45.6333 64.449 46.1458 65.0682 46.1458C65.6874 46.1458 66.1906 45.6333 66.1906 45C66.1906 44.3667 65.6874 43.8542 65.0682 43.8542ZM65.0682 47.8125C63.549 47.8125 62.3131 46.55 62.3131 45C62.3131 43.45 63.549 42.1875 65.0682 42.1875C66.5874 42.1875 67.8233 43.45 67.8233 45C67.8233 46.55 66.5874 47.8125 65.0682 47.8125Z" fill="white"/>
</g>
<defs>
<filter id="filter0_d_976_2" x="36" y="20" width="58" height="58" filterUnits="userSpaceOnUse" color-interpolation-filters="sRGB">
<feFlood flood-opacity="0" result="BackgroundImageFix"/>
<feColorMatrix in="SourceAlpha" type="matrix" values="0 0 0 0 0 0 0 0 0 0 0 0 0 0 0 0 0 0 127 0" result="hardAlpha"/>
<feOffset dy="4"/>
<feGaussianBlur stdDeviation="2"/>
<feComposite in2="hardAlpha" operator="out"/>
<feColorMatrix type="matrix" values="0 0 0 0 0 0 0 0 0 0 0 0 0 0 0 0 0 0 0.25 0"/>
<feBlend mode="normal" in2="BackgroundImageFix" result="effect1_dropShadow_976_2"/>
<feBlend mode="normal" in="SourceGraphic" in2="effect1_dropShadow_976_2" result="shape"/>
</filter>
<filter id="filter1_d_976_2" x="0" y="0" width="130" height="130" filterUnits="userSpaceOnUse" color-interpolation-filters="sRGB">
<feFlood flood-opacity="0" result="BackgroundImageFix"/>
<feColorMatrix in="SourceAlpha" type="matrix" values="0 0 0 0 0 0 0 0 0 0 0 0 0 0 0 0 0 0 127 0" result="hardAlpha"/>
<feOffset dy="20"/>
<feGaussianBlur stdDeviation="20"/>
<feColorMatrix type="matrix" values="0 0 0 0 0.243137 0 0 0 0 0.333333 0 0 0 0 0.403922 0 0 0 0.2 0"/>
<feBlend mode="normal" in2="BackgroundImageFix" result="effect1_dropShadow_976_2"/>
<feBlend mode="normal" in="SourceGraphic" in2="effect1_dropShadow_976_2" result="shape"/>
</filter>
<linearGradient id="paint0_linear_976_2" x1="65" y1="0.287271" x2="25.5745" y2="50.2873" gradientUnits="userSpaceOnUse">
<stop stop-color="#FF5248"/>
<stop offset="1" stop-color="#FF02D0"/>
</linearGradient>
</defs>
</svg>
